<?xml version="1.0" encoding="utf-8"?>
<svg version="1.0" viewBox="-95.213 -26.726 2174.861 911.856" xmlns="http://www.w3.org/2000/svg">
  <defs>
    <radialGradient gradientUnits="userSpaceOnUse" cx="1003.91" cy="534.778" r="1044" id="gradient-0">
      <stop offset="0" style="stop-color: rgba(248, 240, 16, 1)"/>
      <stop offset="1" style="stop-color: rgba(158, 152, 5, 1)"/>
    </radialGradient>
  </defs>
  <path d="M 1261.252 321.268 C 1261.152 322.868 1261.791 321.526 1256.799 325.716 C 1253.014 328.893 1254.837 327.597 1250.745 331.901 C 1249.474 333.237 1248.31 334.578 1247.01 336.778 C 1245.51 339.178 1244.31 340.178 1242.51 340.178 C 1240.71 340.178 1239.21 341.378 1236.91 344.678 C 1235.21 347.178 1233.41 349.178 1232.91 349.178 C 1232.41 349.178 1230.21 350.778 1228.21 352.678 C 1226.11 354.578 1223.31 356.978 1222.11 357.978 C 1220.51 359.078 1219.41 361.378 1218.81 364.678 C 1217.71 370.578 1215.51 374.178 1213.01 374.178 C 1212.01 374.178 1209.31 375.478 1207.11 377.178 C 1204.31 379.178 1201.71 380.178 1199.31 380.178 C 1193.91 380.178 1189.21 383.478 1187.91 388.078 C 1186.91 391.778 1186.71 391.978 1181.91 392.378 C 1177.31 392.878 1176.41 393.378 1171.91 398.278 C 1169.21 401.278 1166.61 404.978 1166.11 406.678 C 1165.41 409.178 1164.71 409.778 1161.31 410.178 C 1159.11 410.478 1155.71 411.978 1153.81 413.478 C 1151.81 414.978 1148.71 416.478 1146.81 416.778 C 1144.91 417.178 1142.01 418.478 1140.21 419.778 C 1138.51 421.078 1136.61 422.178 1136.21 422.178 C 1135.71 422.178 1132.31 424.178 1128.61 426.678 C 1124.91 429.178 1121.31 431.178 1120.71 431.178 C 1120.11 431.178 1118.91 431.878 1118.01 432.678 C 1113.81 436.578 1109.01 440.178 1108.11 440.178 C 1107.51 440.178 1106.11 441.478 1104.91 443.178 C 1103.11 445.678 1102.11 446.178 1098.61 446.178 C 1096.31 446.178 1093.11 446.878 1091.51 447.678 C 1090.01 448.478 1088.11 449.178 1087.51 449.178 C 1086.81 449.178 1085.01 450.478 1083.41 452.178 C 1081.81 453.778 1079.81 455.178 1078.81 455.178 C 1077.91 455.178 1076.61 455.878 1075.91 456.678 C 1075.21 457.478 1073.71 458.178 1072.61 458.178 C 1071.51 458.178 1068.31 459.978 1065.51 462.078 C 1062.71 464.278 1059.21 466.578 1057.81 467.178 C 1055.21 468.378 1054.41 469.478 1052.01 475.378 C 1051.11 477.778 1050.41 478.178 1046.91 478.178 C 1043.51 478.178 1041.91 478.978 1038.01 482.178 C 1035.41 484.378 1032.81 486.178 1032.21 486.178 C 1031.61 486.178 1028.91 487.978 1026.21 490.178 C 1023.41 492.378 1020.01 494.578 1018.51 495.178 C 1017.11 495.678 1014.91 497.778 1013.81 499.678 C 1011.91 502.878 1011.31 503.178 1007.01 503.178 C 1001.31 503.178 994.41 506.478 988.31 512.178 C 984.01 516.078 979.01 519.178 976.81 519.178 C 976.11 519.178 974.11 520.278 972.31 521.678 C 970.51 523.078 968.21 524.178 967.11 524.178 C 966.11 524.178 964.21 525.078 962.91 526.178 C 961.61 527.278 960.01 528.178 959.21 528.178 C 958.41 528.178 955.91 529.478 953.61 531.078 C 951.31 532.578 947.61 534.478 945.41 535.178 C 940.81 536.578 937.31 539.478 935.31 543.378 C 934.51 544.978 933.01 546.178 931.91 546.178 C 930.91 546.178 929.71 546.578 929.41 547.178 C 928.61 548.578 914.61 548.478 913.21 547.078 C 912.51 546.378 910.41 546.178 907.71 546.578 C 905.41 546.978 899.81 547.578 895.41 547.978 C 891.01 548.378 886.41 549.278 885.21 549.978 C 882.11 551.678 867.01 551.578 862.61 549.678 C 860.61 548.878 857.11 548.178 854.81 548.178 C 851.91 548.178 849.81 547.478 847.71 545.678 C 846.11 544.278 843.51 542.878 842.11 542.578 C 840.61 542.178 838.01 540.878 836.21 539.578 C 834.51 538.278 831.81 537.178 830.41 537.178 C 828.71 537.178 826.61 535.978 824.61 533.978 C 821.51 530.778 821.21 530.678 809.91 530.078 C 803.51 529.778 796.21 528.778 793.51 527.778 C 790.81 526.878 787.31 526.178 785.81 526.178 C 784.31 526.178 782.71 525.678 782.41 525.178 C 782.11 524.578 778.61 524.178 774.71 524.178 C 770.71 524.178 766.61 523.578 765.11 522.778 C 762.11 521.178 756.31 519.578 750.71 518.678 C 748.71 518.378 745.71 517.478 744.21 516.678 C 742.71 515.878 739.41 515.178 736.91 515.178 C 731.61 515.078 724.21 512.678 717.71 508.878 C 715.11 507.378 712.71 506.178 712.41 506.178 C 710.61 506.178 704.21 499.978 702.41 496.478 C 699.01 489.678 698.21 489.178 691.01 489.078 C 683.11 488.978 680.81 488.378 677.61 485.578 C 676.21 484.378 674.11 483.078 672.81 482.678 C 668.61 481.378 659.61 474.878 654.31 469.478 C 649.51 464.578 638.21 458.178 634.31 458.178 C 631.41 458.178 624.81 454.078 622.81 450.878 C 621.61 449.078 619.01 446.478 617.11 445.178 C 612.31 441.778 607.31 436.978 606.71 435.178 C 606.41 434.078 603.81 433.578 595.31 433.178 C 586.61 432.778 583.51 432.178 580.11 430.478 C 577.81 429.178 574.31 428.178 572.41 428.178 C 570.61 428.178 568.71 427.678 568.41 427.178 C 568.11 426.578 566.31 426.178 564.61 426.178 C 562.81 426.078 560.31 425.478 558.91 424.678 C 554.81 422.278 547.11 422.878 541.51 426.078 C 536.41 428.878 535.61 429.778 534.01 434.278 C 533.21 436.378 532.21 437.078 528.81 437.578 C 526.41 437.978 524.01 438.678 523.41 439.078 C 522.91 439.578 519.81 441.378 516.61 443.078 C 511.31 445.878 510.11 446.178 501.41 446.178 C 496.31 446.178 491.81 445.778 491.51 445.278 C 491.21 444.878 488.41 444.178 485.31 443.778 C 482.11 443.378 477.11 441.878 474.01 440.178 C 466.41 436.278 461.41 434.178 459.61 434.178 C 458.81 434.178 455.31 431.878 451.81 429.078 C 448.31 426.278 444.31 423.478 442.91 422.878 C 439.01 421.178 436.91 419.078 436.91 416.678 C 436.91 415.478 436.01 413.578 434.91 412.378 C 433.21 410.578 431.71 410.178 426.61 410.178 C 421.31 410.078 419.81 409.678 416.51 407.178 C 414.31 405.478 412.11 404.178 411.61 404.178 C 411.11 404.178 409.01 402.778 406.91 401.178 C 404.81 399.478 402.71 398.178 402.21 398.178 C 401.61 398.178 400.41 397.278 399.31 396.078 C 396.61 393.078 388.51 389.178 385.11 389.178 C 383.51 389.178 381.41 388.278 380.41 387.178 C 379.31 385.978 377.31 385.178 375.31 385.178 C 373.51 385.178 371.71 384.678 371.41 384.178 C 370.31 382.378 366.01 383.078 364.91 385.178 C 364.11 386.678 362.81 387.178 360.11 387.178 C 358.01 387.178 355.31 387.978 353.91 388.878 C 348.41 392.778 339.51 401.878 338.11 405.178 C 336.41 409.278 335.31 410.178 331.91 410.178 C 328.31 410.178 325.21 412.678 322.81 417.278 C 321.61 419.678 319.71 421.678 318.11 422.178 C 316.61 422.778 314.21 423.878 312.71 424.678 C 311.31 425.478 307.61 426.178 304.61 426.178 C 301.51 426.178 298.71 426.578 298.41 427.178 C 298.11 427.678 295.21 428.178 292.01 428.178 C 286.01 428.178 278.31 430.778 274.81 434.078 C 273.81 434.978 270.81 436.778 268.21 438.178 C 265.61 439.478 261.31 442.478 258.71 444.878 C 256.11 447.278 253.51 449.178 253.01 449.178 C 252.41 449.178 251.71 450.278 251.31 451.678 C 251.01 453.078 249.61 454.778 248.41 455.478 C 246.21 456.678 237.81 463.778 229.21 471.778 C 226.81 474.078 224.41 477.278 224.01 478.778 C 223.31 481.378 222.71 481.778 218.01 482.378 C 214.51 482.978 210.91 484.478 206.81 487.178 C 203.31 489.478 199.61 491.178 198.01 491.178 C 196.41 491.178 194.61 491.878 193.91 492.678 C 193.21 493.478 191.81 494.178 190.81 494.178 C 189.11 494.178 188.31 495.478 185.11 503.378 C 184.31 505.378 183.21 506.178 181.41 506.178 C 180.01 506.178 176.21 507.478 172.91 509.178 L 167.01 512.178 L 112.61 512.178 C 68.81 512.178 57.51 512.478 54.81 513.578 C 52.41 514.478 44.01 515.078 25.71 515.478 C 7.71 515.878 -0.69 516.378 -2.29 517.278 C -3.79 518.178 -9.79 518.678 -19.09 518.878 C -27.09 519.078 -35.09 519.478 -36.79 519.778 L -40.09 520.278 L -40.09 758.178 L 2047.91 758.178 L 2047.91 636.678 C 2047.91 557.478 2047.61 515.178 2046.91 515.178 C 2046.41 515.178 2045.31 513.578 2044.41 511.578 C 2042.41 506.778 2031.51 496.078 2025.91 493.478 C 2015.51 488.578 2010.21 486.378 2007.31 485.778 C 2005.71 485.378 2002.21 483.078 1999.61 480.678 C 1997.11 478.178 1994.51 476.178 1993.91 476.178 C 1992.51 476.178 1989.91 470.278 1988.41 463.678 C 1987.31 458.878 1987.11 458.678 1983.71 458.378 C 1979.01 457.978 1976.81 455.378 1976.21 449.478 C 1975.61 443.978 1973.91 442.178 1969.31 442.178 C 1967.51 442.178 1964.11 441.278 1961.61 440.278 C 1958.91 439.078 1953.61 438.078 1948.31 437.778 C 1943.51 437.478 1939.01 436.678 1938.51 436.178 C 1937.91 435.578 1936.11 435.178 1934.51 435.178 C 1925.71 435.178 1917.51 429.178 1911.81 418.678 C 1910.01 415.378 1908.11 411.778 1907.51 410.678 C 1906.91 409.578 1905.21 407.078 1903.71 405.078 C 1902.11 403.078 1900.91 400.978 1900.91 400.478 C 1900.91 399.878 1898.61 397.278 1895.81 394.578 C 1892.91 391.878 1889.71 388.578 1888.51 387.378 C 1887.41 386.078 1884.41 383.778 1881.91 382.378 C 1874.01 377.878 1870.11 374.278 1868.81 370.378 C 1868.21 368.378 1866.81 365.078 1865.81 363.178 C 1864.71 361.278 1863.91 359.178 1863.91 358.478 C 1863.91 356.278 1858.21 353.178 1854.21 353.178 C 1852.11 353.178 1849.91 352.778 1849.31 352.178 C 1848.81 351.678 1843.81 351.078 1838.21 350.978 C 1830.21 350.778 1827.71 350.278 1826.21 348.878 C 1824.61 347.578 1822.41 347.178 1815.31 347.178 L 1806.41 347.178 L 1803.71 343.778 C 1800.91 340.378 1800.81 340.278 1791.21 339.778 C 1785.81 339.478 1778.01 338.978 1773.91 338.578 C 1766.11 337.978 1761.51 338.778 1754.41 342.278 C 1751.91 343.478 1748.31 344.178 1744.91 344.178 C 1741.91 344.178 1738.31 344.778 1736.81 345.478 C 1735.41 346.278 1732.01 347.078 1729.21 347.478 C 1726.41 347.778 1723.21 348.478 1722.21 349.078 C 1721.21 349.578 1717.71 350.878 1714.41 351.978 C 1711.11 353.078 1706.81 354.578 1704.91 355.278 C 1703.01 355.878 1701.01 356.678 1700.41 356.778 C 1699.91 356.978 1696.51 358.978 1693.01 361.178 C 1689.61 363.378 1686.31 365.178 1685.91 365.178 C 1684.11 365.178 1678.91 370.478 1678.91 372.278 C 1678.91 375.478 1675.31 378.178 1671.11 378.178 C 1669.01 378.178 1666.81 378.678 1666.21 379.278 C 1665.51 379.978 1662.91 380.178 1658.81 379.678 C 1645.51 378.378 1628.61 378.078 1627.61 379.078 C 1627.01 379.678 1625.51 380.178 1624.31 380.178 C 1623.11 380.178 1621.11 380.978 1619.81 381.978 C 1617.01 384.178 1608.11 387.178 1604.51 387.178 C 1603.11 387.178 1601.71 387.578 1601.41 388.178 C 1601.11 388.678 1597.21 389.178 1592.91 389.178 C 1586.41 389.178 1584.41 389.578 1581.61 391.378 C 1579.61 392.678 1577.61 394.678 1577.01 395.878 C 1576.11 397.778 1575.11 398.178 1571.11 398.178 C 1567.21 398.178 1565.31 398.778 1561.91 401.278 C 1555.71 405.778 1552.01 409.878 1551.31 412.978 C 1551.01 414.478 1550.51 416.378 1550.31 417.178 C 1549.81 418.778 1539.11 426.078 1536.11 426.878 C 1535.21 427.078 1532.21 426.178 1529.61 424.778 C 1527.01 423.278 1524.01 422.178 1523.01 422.178 C 1522.11 422.178 1520.01 420.778 1518.31 419.078 C 1516.71 417.378 1512.01 413.278 1507.81 410.078 C 1503.61 406.878 1498.01 401.778 1495.51 398.878 C 1492.71 395.578 1489.81 393.178 1488.11 392.878 C 1486.61 392.578 1484.01 390.978 1482.31 389.278 C 1480.61 387.578 1477.41 385.378 1475.31 384.378 C 1465.91 380.178 1453.11 369.778 1448.91 363.278 C 1445.81 358.278 1439.21 349.578 1437.61 348.278 C 1436.71 347.578 1435.61 345.378 1435.31 343.278 C 1434.91 341.278 1433.91 338.678 1433.11 337.378 C 1431.71 335.278 1431.21 335.178 1414.31 335.178 C 1403.91 335.178 1396.81 334.778 1396.41 334.178 C 1396.11 333.578 1392.91 333.178 1389.51 333.178 C 1384.71 333.178 1382.61 332.678 1380.61 331.178 C 1378.71 329.678 1376.51 329.178 1371.71 329.178 C 1367.81 329.078 1364.71 328.578 1363.51 327.678 C 1362.41 326.878 1359.61 326.178 1357.21 326.178 C 1354.81 326.178 1351.41 325.378 1349.61 324.478 C 1347.41 323.378 1342.31 322.578 1332.91 322.078 C 1315.21 320.978 1315.145 317.022 1311.245 315.222 C 1309.545 314.422 1300.877 311.378 1300.477 311.378 C 1300.177 311.378 1298.243 313.944 1295.043 312.344 L 1291.662 310.779 L 1286.062 310.089 C 1291.101 310.416 1288.559 309.283 1281.034 310.226 C 1272.346 311.314 1277.411 310.555 1272.797 313.11 C 1267.549 316.016 1270.041 312.653 1266.341 315.58 C 1261.433 319.464 1261.452 319.568 1261.252 321.268 Z" style="fill: url(#gradient-0);"/>
  <line style="fill: rgb(216, 216, 216); stroke: rgb(215, 0, 0);" x1="1279.454" y1="309.807" x2="1279.454" y2="180.138"/>
  <rect x="1164.604" y="85.664" width="233.405" height="96.326" style="fill: rgb(216, 216, 216); stroke: rgb(0, 0, 0);"/>
  <text style="white-space: pre; fill: rgb(51, 51, 51); font-family: Arial, sans-serif; font-size: 51.9px;" x="436.601" y="143.089" transform="matrix(0.610372, 0, 0, 0.610284, 931.458374, 37.716084)">Premio de <tspan x="436.60101318359375" dy="1em">​</tspan>la montaña</text>
  <text style="white-space: pre; fill: rgb(51, 51, 51); font-family: Arial, sans-serif; font-size: 51.9px;" x="890.445" y="152.351"> </text>
  <text style="white-space: pre; fill: rgb(51, 51, 51); font-family: Arial, sans-serif; font-size: 51.9px;" x="-85.782" y="-95.873">Premio de montaña</text>
  <text style="white-space: pre; fill: rgb(51, 51, 51); font-family: Arial, sans-serif; font-size: 51.9px;" x="720.022" y="191.252"> </text>
</svg>